<?xml version="1.0" encoding="UTF-8" standalone="no"?>
<svg
   xmlns:dc="http://purl.org/dc/elements/1.1/"
   xmlns:cc="http://creativecommons.org/ns#"
   xmlns:rdf="http://www.w3.org/1999/02/22-rdf-syntax-ns#"
   xmlns:svg="http://www.w3.org/2000/svg"
   xmlns="http://www.w3.org/2000/svg"
   xmlns:sodipodi="http://sodipodi.sourceforge.net/DTD/sodipodi-0.dtd"
   xmlns:inkscape="http://www.inkscape.org/namespaces/inkscape"
   xml:space="preserve"
   viewBox="0 0 710.69999 99.600001"
   y="0px"
   x="0px"
   id="svg2"
   version="1.0"
   inkscape:version="0.91 r"
   sodipodi:docname="logo.svg"
   width="710.70001"
   height="99.599998"><sodipodi:namedview
     pagecolor="#ffffff"
     bordercolor="#666666"
     borderopacity="1"
     objecttolerance="10"
     gridtolerance="10"
     guidetolerance="10"
     inkscape:pageopacity="0"
     inkscape:pageshadow="2"
     inkscape:window-width="1920"
     inkscape:window-height="1138"
     id="namedview3475"
     showgrid="false"
     inkscape:zoom="0.69790347"
     inkscape:cx="355.35"
     inkscape:cy="49.800002"
     inkscape:window-x="1200"
     inkscape:window-y="721"
     inkscape:window-maximized="1"
     inkscape:current-layer="svg2"
     showborder="false"
     fit-margin-top="0"
     fit-margin-left="0"
     fit-margin-right="0"
     fit-margin-bottom="0" /><metadata
     id="metadata3373"><rdf:RDF><cc:Work
         rdf:about=""><dc:format>image/svg+xml</dc:format><dc:type
           rdf:resource="http://purl.org/dc/dcmitype/StillImage" /><dc:title></dc:title></cc:Work></rdf:RDF></metadata><defs
     id="defs3371" /><style
     id="style3337"
     type="text/css">
	.st0{enable-background:new    ;}
	.st1{fill:#344A73;enable-background:new    ;}
	.st2{fill:#FFFFFF;}
	.st3{fill:#DB213A;}
</style><g
     id="g3404"
     transform="translate(-65.377198,-707.98707)"><path
       inkscape:connector-curvature="0"
       style="fill:#db213a;fill-opacity:1;enable-background:new"
       id="path757-6"
       d="m 257.1772,801.38707 0,0 -15.3,-0.5 -0.1,1.1 -30.1,-0.9 0,0.5 -42.5,0 0.2,-2.1 c -0.7,0.2 -1.5,0.5 -2.2,0.6 -2.7,0.7 -5.3,1.1 -7.9,1.2 l -0.2,0 c -4.1,0 -7.5,-0.5 -10.5,-1.7 -3.3,-1.3 -6,-3.2 -8,-5.5 l -0.1,-0.1 c -1.9,-2.4 -3.3,-5.1 -4.1,-8.2 -0.7,-2.7 -1,-5.6 -1,-8.7 0,-1.4 0,-2.6 0.1,-3.7 0,-1.1 0.1,-2.1 0.2,-3.1 l 0.3,-3.2 c 0.1,-1 0.3,-2.1 0.4,-3.3 0,0 0.1,-0.5 0.1,-0.7 l -7.6,0.5 0,12.5 -5.8,-0.5 0,26.5 -57.000002,-1.8 -0.7,-27.6 14.4,-0.6 -1.3,-21.7 -12.7,0.8 0,-34.8 87.100002,1.8 0,17.9 10.7,0.5 0.1,-1.4 25,0.9 0,-20.2 46.8,-1.5 -0.1,1.1 35,-1.1 -0.6,7.8 c 1.1,-0.8 2.3,-1.5 3.5,-2.2 2.7,-1.5 5.7,-2.7 8.9,-3.6 3,-0.9 6.3,-1.5 9.7,-1.9 2.7,-0.3 5.6,-0.4 8.5,-0.4 0.6,0 1.1,0 1.7,0 l 0.2,0 c 3.5,0.2 7,0.5 10.3,1 1.4,0.2 3,0.5 4.6,0.9 1.5,0.3 3,0.7 4.5,1.2 l 2,-9.2 15,6 24.5,1.8 -2,9 c -0.4,1.6 -0.7,3.4 -1.1,5.4 -0.2,1.1 -0.4,2.2 -0.7,3.5 l 19.3,-1.6 -0.2,6.7 c 1.3,-0.6 2.5,-1.2 3.8,-1.7 4.5,-1.7 9.5,-2.7 14.9,-3 l 0.3,0 c 0,0 0.8,0 1.1,0 4.5,0 8.6,0.5 12,1.5 3.8,1.1 7.1,2.7 9.7,4.7 1.2,0.9 2.3,1.8 3.3,2.9 0.5,-0.4 0.9,-0.8 1.4,-1.2 3.4,-2.7 7.1,-4.8 11.3,-6.1 4,-1.2 8,-1.8 12.1,-1.8 l 0.3,0 c 2,0.1 4,0.4 6,0.8 0.8,0.2 1.5,0.4 2.3,0.6 l 0.1,-0.3 0,-18.9 44.4,-1.3 -1.8,28.9 5.4,-4.5 32.8,-3.8 -0.1,1 c 0.5,-0.2 1.1,-0.3 1.6,-0.5 4.5,-1.2 9.3,-1.8 14.3,-1.8 1.9,0 3.9,0.1 6,0.4 2.3,0.3 4.5,0.8 6.6,1.6 1.3,0.5 2.6,1 3.8,1.7 l 41.7,-3.7 -0.3,1.8 c 0.5,-0.3 0.9,-0.5 1.4,-0.7 1.8,-1 3.6,-1.8 5.4,-2.5 2,-0.8 3.9,-1.4 5.7,-1.8 l 8.8,-1.7 0.5,6.5 c 2.6,-0.5 5.4,-0.8 8.4,-0.8 3.7,0 7.2,0.4 10.4,1.1 0.9,0.2 1.8,0.4 2.7,0.7 l -0.1,-5.3 28.4,5.6 -0.5,1.6 5.4,-0.4 c -0.7,-1.5 -1,-3.1 -1,-4.8 0,-2.3 0.6,-4.5 1.9,-6.5 1.1,-1.7 2.6,-3.2 4.3,-4.3 1.5,-0.9 3.2,-1.7 5,-2.2 1.7,-0.5 3.6,-0.8 5.6,-0.8 2,0 3.8,0.3 5.6,0.8 1.8,0.5 3.4,1.2 4.9,2.1 1.8,1.1 3.2,2.6 4.3,4.3 1.3,1.9 2,4.2 2,6.5 0,0.9 -0.1,1.8 -0.3,2.7 l 1.2,-0.1 -0.3,3.2 c 2.6,-1.7 5.5,-3 8.6,-4 4.4,-1.4 9.1,-2.1 13.9,-2.1 5.6,0 10.5,0.9 14.6,2.7 4.2,1.8 7.8,4.4 10.5,7.6 2.6,3.1 4.6,6.7 5.7,10.7 1.1,3.5 1.6,7.4 1.6,11.3 0,5.3 -0.9,10.3 -2.7,14.8 -1.8,4.5 -4.4,8.5 -7.7,11.8 -3.3,3.3 -7.4,5.8 -12,7.5 -4.4,1.7 -9.4,2.6 -14.7,2.6 -4.3,0 -8.2,-0.5 -11.7,-1.6 l 0,0.3 -40.1,-1.1 c -1.2,0.9 -2.6,1.6 -4.1,2.1 -1.9,0.7 -3.9,1.1 -6,1.1 -2.1,0 -4.2,-0.4 -6.1,-1.1 -1.6,-0.6 -3,-1.4 -4.3,-2.3 -1.8,0.7 -3.7,1.2 -5.7,1.6 -3,0.6 -6.4,0.9 -9.9,0.9 -4.3,0 -8.1,-0.3 -11.3,-1 -1.4,-0.3 -2.7,-0.6 -3.9,-1 l -0.9,7 -27,-9.2 0,0 -40.2,5.1 -0.6,-4.9 c -2.6,1.2 -5.3,2.2 -8.1,2.9 -3.6,0.9 -7.3,1.3 -10.8,1.3 -3.8,0 -7.4,-0.5 -10.6,-1.4 l -30.2,0 -1.9,-2.2 0,2.2 -44.4,0 c -1.8,0.5 -3.7,0.9 -5.5,1.2 -1.7,0.3 -3.3,0.4 -4.8,0.5 -1.2,0 -2.2,0.1 -3,0.1 -3.1,0 -6.2,-0.4 -9.2,-1.1 -1.3,-0.3 -2.7,-0.7 -4,-1.1 l -1,3.7 -38.8,-2.9 0.1,-0.6 c -2.3,0.4 -4.6,0.5 -6.9,0.5 -2.4,0 -4.9,-0.2 -7.5,-0.6 -2.7,-0.5 -5.3,-1.2 -7.7,-2.3 -1.9,0.9 -3.7,1.6 -5.6,2.2 -2.2,0.7 -4.3,1.1 -6.4,1.4 -1.8,0.3 -3.7,0.4 -5.4,0.4 -4.5,0 -8.6,-0.7 -12,-2 -3.5,-1.3 -6.5,-3.2 -8.9,-5.6 -0.2,-0.2 -0.4,-0.4 -0.6,-0.6 -1.7,1.5 -3.6,2.8 -5.8,3.9 -2.4,1.2 -5,2.1 -7.6,2.8 -2.6,0.7 -5.2,1.1 -7.9,1.3 -2.5,0.2 -4.9,0.3 -7.3,0.3 -3,0 -5.9,-0.1 -8.6,-0.4 -2.6,-0.2 -5.3,-0.6 -7.9,-1.1 -2.5,-0.5 -5.1,-1 -7.6,-1.7 0,0 0,0 0,0 l -2.8,8.4 -21.3,-6.2 z m 484,-45.4 c -0.4,0 -0.5,0 -0.5,0 -0.3,0.2 -0.6,0.4 -0.9,0.8 -0.4,0.6 -0.8,1.2 -1.2,2 -0.4,1 -0.8,2.1 -1,3.2 -0.3,1.2 -0.5,2.4 -0.6,3.5 -0.1,1.1 -0.1,2.1 -0.1,2.9 0,0.9 0.1,1.9 0.2,3 0.1,1 0.3,2 0.6,3.1 0.3,1 0.6,2 1.1,2.9 0.3,0.6 0.6,1.2 1.1,1.6 0.3,0.3 0.6,0.6 1,0.8 0,0 0.4,0.1 0.9,0.1 0.5,0 0.8,-0.1 0.8,-0.1 0.3,-0.1 0.4,-0.3 0.5,-0.4 0.4,-0.5 0.7,-0.9 0.9,-1.5 0.3,-0.9 0.6,-1.8 0.8,-2.7 0.2,-1.2 0.4,-2.2 0.5,-3.2 0.1,-1.1 0.1,-2.1 0.1,-2.9 0,-1.1 -0.1,-2.3 -0.2,-3.7 -0.1,-1.3 -0.3,-2.6 -0.6,-3.8 l 0,-0.2 c -0.2,-1.1 -0.5,-2.1 -0.9,-3 l -0.1,-0.2 c -0.3,-0.7 -0.6,-1.3 -0.9,-1.7 l -0.1,-0.2 c -0.2,-0.3 -0.4,-0.4 -0.6,-0.6 -0.4,0.3 -0.5,0.3 -0.8,0.3 z m -191.2,23.7 c 0.3,0.2 0.8,0.2 1.4,0.2 1.1,-0.2 2,-0.5 2.8,-1 0.2,-0.1 0.5,-0.4 0.8,-0.7 0.1,-0.1 0.3,-0.4 0.5,-0.8 0.1,-0.2 0.3,-0.6 0.4,-1.4 0,-0.1 0,-0.2 0.1,-0.4 l -8.2,1.5 c 0.2,0.4 0.5,0.8 0.7,1.2 0.4,0.5 0.9,1 1.5,1.4 z m -97.9,-20.9 c -1.4,0 -2.6,0.3 -3.6,0.7 -0.9,0.4 -1.7,0.9 -2.3,1.6 -0.6,0.7 -1.1,1.5 -1.4,2.5 -0.4,1.3 -0.6,2.7 -0.6,4.3 0,2 0.2,3.8 0.6,5.5 0.3,1.2 0.8,2.2 1.5,3.1 0.5,0.7 1.3,1.2 2.2,1.6 0.8,0.4 2.2,0.6 3.7,0.6 0.6,-0.1 1.2,-0.3 1.8,-0.6 0.3,-0.1 0.6,-0.4 1,-0.7 0.4,-0.3 0.8,-0.7 1.1,-1.1 0.4,-0.4 0.8,-1.1 1.2,-1.8 0.2,-0.4 0.6,-1.2 1.1,-2.4 l 0.9,-2.5 -8.9,-1 1.9,-9.6 c 0,-0.2 -0.1,-0.2 -0.2,-0.2 z m -285.5,3.1 c -0.2,1.6 -0.3,3.1 -0.5,4.3 -0.1,1.3 -0.2,2.4 -0.3,3.4 -0.1,0.9 -0.1,1.7 -0.2,2.4 0,0.7 0,1.5 0,2.2 0,0.8 0,1.5 0.1,2.1 0.2,-0.1 0.4,-0.2 0.6,-0.2 0.5,-0.3 1.5,-0.8 2.8,-2 0.8,-0.7 1.6,-1.7 2.4,-2.9 l 0.7,-9.5 -5.6,0.2 z m 188.4,14.1 c 0,0 0.1,0 0.1,0.1 0.3,0.1 0.6,0.1 1.1,0.1 0.6,0 1.3,-0.1 2,-0.3 0.8,-0.2 1.7,-0.6 2.5,-1.1 0.9,-0.5 1.9,-1.3 2.8,-2.1 1,-0.9 1.9,-1.9 2.7,-3.1 l 0.6,-0.8 -4.5,0.2 0.8,-7.5 -7.9,0.2 c -0.1,1.1 -0.2,2.3 -0.3,3.4 -0.2,3.1 -0.4,6.1 -0.4,8.9 0,0.9 0.1,1.4 0.2,1.6 0.2,0.2 0.2,0.3 0.3,0.4 z m -153.7,-0.2 1.4,-0.1 0,-15.2 -1.6,0.1 0.2,15.2 z m 478,-2.9 c 1.4,0.2 2.7,0.5 4,1 0.9,0.3 1.7,0.7 2.6,1.2 l 3.7,-0.2 0,-12.1 -13.7,-0.4 -1.1,3.7 c 1.3,1.3 2.4,2.7 3.3,4.3 0.5,0.8 0.9,1.6 1.2,2.5 z m -448.5,0.8 6.7,-0.5 -0.1,-32.7 -4,-0.1 -2.6,33.3 z m 375.8,-0.2 10.2,-0.1 1,-3 c -1,-1.2 -1.8,-2.4 -2.6,-3.7 -0.4,-0.7 -0.7,-1.3 -1,-2 -1.6,0.5 -3.1,1 -4.2,1.5 -0.8,0.4 -1.6,0.8 -2.4,1.2 l -1,6.1 z m -306.9,-1.8 c 2.6,0.3 5.2,0.5 7.9,0.5 1.2,0 2.2,0 3.2,-0.1 -2.4,-0.2 -5.3,-0.3 -8.5,-0.4 -1.1,0 -2.3,-0.1 -3.5,-0.1 0.4,0 0.7,0.1 0.9,0.1 z m -33.4,-5.1 0.8,-3.2 c -0.2,-0.1 -0.4,-0.3 -0.5,-0.5 l -0.3,3.7 z m -158.6,-17.3 20,-1.3 0,-0.9 -19.9,1.3 -0.1,0.9 z"
       class="st0" /><path
       inkscape:connector-curvature="0"
       style="fill:#344a73;fill-opacity:1;enable-background:new"
       id="path759-7"
       d="m 260.7772,799.28707 0.2,-0.9 -21.8,-0.7 -0.1,1.1 -30.5,-0.9 0,0.6 -36.3,0 0.3,-3.6 c -2.3,1 -4.4,1.7 -6.3,2.2 -2.5,0.7 -4.9,1 -7.2,1.1 l -0.2,0 c -3.7,0 -6.7,-0.5 -9.3,-1.5 -2.8,-1.1 -5.1,-2.7 -6.8,-4.7 l -0.1,-0.1 c -1.6,-2 -2.8,-4.4 -3.5,-7 -0.6,-2.4 -0.9,-5.1 -0.9,-7.9 0,-1.4 0,-2.6 0.1,-3.6 0,-1.1 0.1,-2.1 0.2,-3 l 0.3,-3.1 c 0.1,-0.9 0.3,-2 0.4,-3.3 l 0,-0.1 c 0.2,-1.2 0.4,-2.6 0.5,-4.1 l -10.1,0.6 0.8,-6.2 0.3,-10.2 -25.8,1.7 -0.5,6.9 21.3,-1.4 0,21.5 -22.7,-1.8 -0.2,3.3 17.2,-0.8 0,25.5 -51.000002,-1.6 -0.5,-21.8 14.5,-0.6 -1.7,-27.7 -12.5,0.8 0,-28.5 81.100002,1.7 0,17.9 16.2,0.7 -0.6,5.3 c -0.4,3.5 -0.7,6.6 -1,9.2 -0.3,2.6 -0.5,4.9 -0.8,6.8 -0.2,1.8 -0.4,3.5 -0.5,4.8 -0.1,1.3 -0.2,2.5 -0.3,3.5 -0.1,0.9 -0.1,1.8 -0.2,2.5 0,0.7 0,1.5 0,2.3 0,1.1 0.1,2.2 0.3,3.2 0.1,0.7 0.3,1.2 0.5,1.7 0.2,0.3 0.4,0.4 0.5,0.5 0,0 0,0 0,0 0,0 0.2,0.1 0.7,0.1 1,-0.1 2,-0.4 3,-0.9 1,-0.5 2.2,-1.3 3.5,-2.5 1.1,-1 2.2,-2.4 3.3,-4.2 l 1,-13.5 -10.9,0.4 2,-20.7 39.1,1.4 0,-2.1 -13.8,-0.5 0,-18.3 40.5,-1.3 -0.1,1.1 35,-1.1 -1,12.4 c 0.5,-0.7 1.1,-1.4 1.7,-2 1.9,-2 4.2,-3.8 6.9,-5.2 2.5,-1.4 5.3,-2.5 8.3,-3.3 2.9,-0.8 6,-1.4 9.2,-1.8 2.6,-0.3 5.4,-0.4 8.1,-0.4 0.5,0 1.1,0 1.7,0 l 0.1,0 c 3.3,0.2 6.7,0.5 10,1 1.4,0.2 2.9,0.5 4.4,0.8 1.6,0.3 3.1,0.7 4.7,1.2 0.9,0.3 1.8,0.6 2.7,0.9 l 2,-9 12.2,4.9 21.5,1.6 -1.3,5.6 c -0.4,1.7 -0.7,3.5 -1.1,5.5 -0.4,1.8 -0.8,3.8 -1.2,6.2 -0.1,0.4 -0.1,0.8 -0.2,1.2 l 19.9,-1.6 -0.2,8.8 c 0.8,-0.6 1.7,-1.2 2.5,-1.7 1.8,-1 3.6,-1.9 5.4,-2.6 4.2,-1.5 8.9,-2.5 14,-2.8 l 0.1,0 c 0,0 0.8,0 1.1,0 4.3,0 8,0.5 11.1,1.4 3.4,1 6.4,2.4 8.8,4.2 1.9,1.5 3.6,3.1 4.9,5 1.1,-1.2 2.2,-2.4 3.5,-3.4 3.1,-2.5 6.5,-4.4 10.3,-5.5 3.7,-1.1 7.4,-1.7 11.2,-1.7 l 0.2,0 c 1.8,0.1 3.6,0.3 5.5,0.7 1.6,0.4 3.3,0.9 5.2,1.6 l 0.8,-3.9 0,-16.2 38.2,-1.1 -2,32.6 10,-8.4 28.2,-3.2 -0.3,2.1 c 1.9,-0.9 3.9,-1.6 6,-2.1 4.2,-1.2 8.8,-1.7 13.6,-1.7 1.8,0 3.7,0.1 5.6,0.4 2.1,0.3 4.1,0.8 6,1.4 1.4,0.5 2.8,1.2 4.2,1.9 l 38.8,-3.4 -0.7,4.4 c 0.5,-0.3 1,-0.7 1.5,-1 1.8,-1.1 3.5,-2.1 5.2,-3 1.7,-0.9 3.5,-1.7 5.2,-2.4 1.8,-0.7 3.6,-1.3 5.2,-1.6 l 5.5,-1.1 0.5,6.7 c 0.3,-0.1 0.5,-0.2 0.8,-0.2 3,-0.9 6.5,-1.4 10.3,-1.4 3.5,0 6.8,0.4 9.7,1 2.4,0.6 4.6,1.2 6.5,1.9 l -0.1,-5.8 21.5,4.2 -0.8,2.6 15.3,-1 c -0.9,-0.7 -1.6,-1.5 -2.3,-2.4 l -0.1,-0.1 -0.1,-0.1 c -1,-1.5 -1.5,-3.2 -1.5,-4.9 0,-1.8 0.5,-3.4 1.5,-4.9 0.9,-1.4 2,-2.5 3.4,-3.4 1.2,-0.8 2.6,-1.4 4.2,-1.8 1.4,-0.4 3.1,-0.7 4.8,-0.7 1.7,0 3.3,0.2 4.8,0.7 1.5,0.4 2.9,1 4.1,1.8 1.4,0.9 2.5,2 3.4,3.4 1,1.5 1.5,3.2 1.5,5 0,1.8 -0.5,3.5 -1.6,5 -0.2,0.4 -0.5,0.7 -0.8,1 l 2.9,-0.2 -0.7,6.8 c 0.6,-0.6 1.2,-1.2 1.9,-1.7 3.3,-2.7 7.1,-4.8 11.3,-6.1 4.1,-1.3 8.5,-2 13,-2 5.2,0 9.7,0.8 13.4,2.4 3.8,1.6 7,3.9 9.4,6.8 2.4,2.7 4.1,6 5.1,9.6 1,3.3 1.5,6.8 1.5,10.5 0,4.9 -0.8,9.5 -2.5,13.7 -1.6,4.2 -4,7.8 -7,10.8 -3,3 -6.7,5.3 -11,6.9 -4.1,1.6 -8.7,2.4 -13.7,2.4 -5.1,0 -9.6,-0.8 -13.4,-2.4 -0.3,-0.1 -0.6,-0.2 -0.8,-0.4 l -0.2,1.3 -38.4,-1.1 c -1.2,1 -2.6,1.8 -4.1,2.3 -1.5,0.6 -3.2,0.9 -5,0.9 -1.8,0 -3.5,-0.3 -5.1,-0.9 -1.6,-0.6 -3,-1.4 -4.2,-2.4 l -0.1,-0.1 c -0.2,-0.2 -0.3,-0.3 -0.5,-0.5 -2,0.9 -4.3,1.6 -6.7,2.1 -2.9,0.5 -6,0.8 -9.4,0.8 -4.1,0 -7.7,-0.3 -10.7,-1 -2.8,-0.6 -5.1,-1.3 -7.1,-2 l -0.9,6.9 -20.7,-7.1 0.6,-1.7 -42,5.3 -0.7,-6.3 c -0.5,0.3 -0.9,0.6 -1.4,0.8 -3.1,1.7 -6.4,3 -9.9,3.9 -3.4,0.8 -6.8,1.2 -10.1,1.2 -3.9,0 -7.6,-0.5 -10.9,-1.6 l 0,0.2 -28.6,0 -6.2,-7.3 0,7.3 -41.8,0 c -0.1,0 -0.2,0 -0.3,0.1 -1.8,0.5 -3.6,0.9 -5.2,1.1 -1.6,0.3 -3.1,0.4 -4.5,0.4 -1.2,0 -2.2,0.1 -2.9,0.1 -2.9,0 -5.8,-0.3 -8.5,-1 -2.3,-0.5 -4.5,-1.3 -6.7,-2.2 l -1.2,4.5 -33.2,-2.5 0.2,-1.6 c -0.3,0.1 -0.7,0.2 -1,0.2 -3.2,0.7 -6.4,1.1 -9.4,1.1 -2.2,0 -4.6,-0.2 -7,-0.6 -2.6,-0.4 -5,-1.2 -7.2,-2.2 l -0.1,0 c -0.3,-0.1 -0.5,-0.3 -0.8,-0.4 -0.1,0.1 -0.2,0.1 -0.3,0.2 -2.1,1 -4.2,1.9 -6.2,2.5 -2,0.6 -4,1.1 -5.9,1.3 -1.7,0.2 -3.5,0.4 -5,0.4 -4.2,0 -7.8,-0.6 -10.9,-1.8 -3.1,-1.2 -5.7,-2.8 -7.9,-4.9 -0.9,-0.9 -1.7,-1.9 -2.5,-2.9 -0.3,0.4 -0.6,0.7 -0.9,1 -1.8,1.9 -4,3.5 -6.4,4.7 -2.2,1.1 -4.6,1.9 -7,2.6 -2.4,0.6 -4.9,1 -7.4,1.2 -2.4,0.2 -4.8,0.3 -7,0.3 -2.9,0 -5.7,-0.1 -8.3,-0.4 -2.5,-0.2 -5.1,-0.6 -7.6,-1.1 -2.5,-0.5 -4.9,-1 -7.4,-1.6 -0.9,-0.2 -1.8,-0.5 -2.7,-0.8 l -2.8,8.4 -16.1,-4.7 z m 473.3,-34.1 c -0.1,1.3 -0.2,2.3 -0.2,3.2 0,1 0.1,2.1 0.2,3.3 0.1,1.1 0.4,2.3 0.7,3.5 0.3,1.1 0.7,2.3 1.2,3.4 0.4,0.9 0.9,1.7 1.6,2.4 0.5,0.6 1.2,1.1 1.9,1.4 0.6,0.3 1.3,0.4 2.3,0.4 0.9,0 1.6,-0.1 2.1,-0.4 0.6,-0.3 1.1,-0.7 1.5,-1.2 0.6,-0.7 1,-1.4 1.3,-2.3 0.4,-1.1 0.7,-2.1 0.9,-3.2 0.3,-1.3 0.4,-2.4 0.5,-3.5 0.1,-1.2 0.1,-2.2 0.1,-3.1 0,-1.2 -0.1,-2.5 -0.2,-4 -0.1,-1.4 -0.3,-2.8 -0.6,-4.1 l 0,-0.1 c -0.3,-1.3 -0.6,-2.5 -1.1,-3.6 l 0,-0.1 c -0.4,-1 -0.9,-1.8 -1.4,-2.5 l -0.1,-0.1 c -0.4,-0.6 -0.9,-1 -1.6,-1.3 -0.5,-0.3 -1.1,-0.4 -1.8,-0.4 -0.8,0 -1.5,0.1 -2,0.4 -0.7,0.4 -1.3,0.9 -1.8,1.6 -0.6,0.8 -1.1,1.7 -1.6,2.8 -0.5,1.2 -0.9,2.4 -1.2,3.7 -0.4,1.4 -0.6,2.6 -0.7,3.8 z m -185.6,17.1 c 0.8,0.4 1.8,0.6 3,0.6 l 0.1,0 c 1.6,-0.2 3,-0.7 4.2,-1.4 0.4,-0.3 0.9,-0.7 1.4,-1.1 0.4,-0.4 0.7,-0.9 1,-1.5 0.3,-0.6 0.6,-1.4 0.7,-2.3 0.2,-1 0.2,-2.1 0.1,-3.5 l -0.1,-1 -15.2,2.7 c 0.1,0.3 0.2,0.7 0.3,1 0.5,1.6 1.2,3 2,4.2 0.7,0.9 1.5,1.7 2.5,2.3 z m 68.3,0.1 4.4,-12.5 0.8,0.5 c -1.7,-1.5 -3.1,-3.3 -4.1,-5.2 -0.7,-1.3 -1.2,-2.7 -1.5,-4.2 0,0 0,0 0,0 -3,0.7 -5.5,1.5 -7.4,2.4 -1.5,0.6 -2.7,1.3 -3.9,2.1 l -2,11.1 13.8,-0.2 0,6 z m -164.5,-26.6 c -1.9,0 -3.6,0.3 -4.9,0.9 -1.3,0.6 -2.5,1.3 -3.4,2.4 -0.9,1 -1.6,2.2 -2.1,3.6 -0.5,1.6 -0.8,3.3 -0.8,5.3 0,2.3 0.3,4.4 0.7,6.2 0.4,1.6 1.1,3 2.1,4.2 0.8,1 1.9,1.9 3.3,2.5 1.3,0.6 3,0.9 5.1,0.9 1.1,-0.1 2.1,-0.4 3.1,-1 0.4,-0.2 0.9,-0.6 1.5,-1 0.5,-0.4 1,-0.9 1.6,-1.5 0.5,-0.6 1,-1.3 1.6,-2.2 0.5,-0.8 0.9,-1.8 1.3,-3 l 2.1,-6.1 -9.4,-1.1 1.8,-8.9 0,0 c -0.8,-0.4 -1.5,-0.7 -2.1,-0.9 -0.6,-0.2 -1.1,-0.3 -1.5,-0.3 z m 188.4,24 c 0.9,0.3 1.9,0.6 2.8,0.9 0.9,0.3 1.9,0.5 2.8,0.7 -0.3,-0.1 -0.7,-0.2 -1,-0.3 -1.4,-0.4 -2.9,-0.9 -4.6,-1.3 z m -249,-0.2 c 0.2,0 0.5,0.1 0.7,0.1 0.3,0 0.6,0 0.9,-0.1 2.2,-0.4 4.2,-0.9 6.2,-1.5 0.4,-0.1 0.8,-0.3 1.3,-0.4 -0.2,0 -0.5,0 -0.7,0 -1,0.1 -2.1,0.2 -3.2,0.3 l -0.1,0 c -1.1,0.1 -2.2,0.3 -3.2,0.6 -0.8,0.2 -1.6,0.5 -2.2,0.8 0,0.1 0.2,0.1 0.3,0.2 z m -39.7,-2.9 c 0.3,0.6 0.6,1.1 0.9,1.5 0.3,0.3 0.7,0.5 1.2,0.7 0.6,0.2 1.3,0.3 2.1,0.3 0.9,0 1.8,-0.1 2.8,-0.4 1.1,-0.3 2.1,-0.8 3.2,-1.4 1.1,-0.6 2.3,-1.5 3.4,-2.5 1.1,-1 2.2,-2.2 3.1,-3.5 l 4.3,-5.9 -7.3,0.4 0.6,-5.8 c 0.1,-0.5 0.1,-1.1 0.2,-1.6 l -14,0.4 c -0.2,2 -0.4,4.1 -0.6,6 -0.2,3.2 -0.4,6.3 -0.4,9.1 0.1,1.1 0.2,2 0.5,2.7 z m -153.7,2.3 7.3,-0.5 0,-21.2 -7.7,0.4 0.4,21.3 z m 478.9,-3.2 c 1.8,0 3.5,0.3 5.1,0.9 1,0.4 2,0.8 2.9,1.4 l 7.5,-0.5 -0.1,-17.8 -14.9,-0.4 0,-13.9 -6.3,21.5 -0.2,-0.1 c 1.8,1.4 3.2,3.1 4.3,5 0.7,1.2 1.2,2.5 1.6,3.9 0,0 0.1,0 0.1,0 z m -449.7,1.1 13,-0.9 -0.1,-38.4 -9.8,-0.3 -3.1,39.6 z m 34.9,0 4.3,-0.3 3,-11.3 5.4,2.3 c 2.8,1.2 5.5,2.3 8.2,3.2 2.7,0.9 5.4,1.7 8.1,2.4 2.6,0.6 5.3,1.1 8.1,1.4 2.7,0.3 5.5,0.5 8.3,0.5 2.7,0 5,-0.2 6.8,-0.5 1.9,-0.3 3,-0.8 3.6,-1.1 0.6,-0.3 0.9,-0.6 0.9,-0.7 0.2,-0.3 0.2,-0.7 0.2,-1.2 0,-0.7 -0.1,-0.9 -0.1,-0.9 0,0 -0.4,-0.4 -1.7,-0.8 -1.4,-0.4 -3.3,-0.7 -5.7,-0.9 -2.6,-0.2 -5.7,-0.3 -9.2,-0.4 -2.5,-0.1 -5.2,-0.2 -8,-0.3 -3,-0.1 -5.9,-0.4 -8.7,-0.9 -2.9,-0.5 -5.8,-1.1 -8.5,-2 -2.9,-1 -5.6,-2.3 -7.9,-4.1 -2.2,-1.7 -3.9,-3.7 -5.3,-6 l -1.8,21.6 z m 318.7,-5.3 0.1,-3.5 -8.4,1.5 8.3,2 z m -111.4,-0.3 0.1,-3.5 -3.7,-0.4 3.6,3.9 z m 47.3,-1.5 c 0,-3.1 0.4,-6 1,-8.7 l -2,0 -4.4,2.9 5.4,5.8 z m -141.4,-3.9 c 0.4,-0.2 0.8,-0.4 1.2,-0.6 l -1.3,0.1 0.1,0.5 z m 270.6,-7.7 c 0.5,0.1 1,0.3 1.6,0.4 2.1,0.5 4.7,1.2 7.5,1.9 2.6,0.6 5,1.3 7.3,2.1 -0.5,-0.2 -1,-0.4 -1.5,-0.6 -1.7,-0.7 -3.6,-1.4 -5.4,-1.9 -1.8,-0.6 -3.7,-1 -5.5,-1.3 -1.4,-0.4 -2.8,-0.6 -4,-0.6 z m -253.2,-0.8 c -0.3,0.4 -0.5,0.8 -0.8,1.4 -0.3,0.6 -0.5,1.2 -0.6,2 l -0.1,0.7 c 1,-0.1 2.1,-0.2 3.1,-0.3 2.2,-0.2 4.2,-0.2 5.9,-0.2 1.4,0 2.7,0 3.9,0.1 0,-0.4 0,-0.8 0,-1.3 0,-1 -0.1,-1.8 -0.4,-2.6 l 0,-0.1 c -0.1,-0.3 -0.2,-0.5 -0.5,-0.8 -0.3,-0.2 -0.8,-0.6 -1.9,-0.9 -0.9,-0.2 -2.1,-0.4 -3.4,-0.4 -0.3,0 -0.6,0 -0.9,0 -0.9,0.1 -1.6,0.3 -2.4,0.7 -0.3,0.2 -0.7,0.4 -1,0.7 -0.3,0.3 -0.6,0.6 -0.9,1 z m 154.9,-2.8 c -1.1,0.2 -2,0.5 -2.5,0.9 -0.7,0.5 -1.2,1.1 -1.6,1.8 -0.2,0.4 -0.4,0.9 -0.5,1.4 l 10.5,-1.9 c -0.2,-0.3 -0.5,-0.5 -0.7,-0.7 l -0.2,-0.1 c -0.4,-0.3 -0.8,-0.5 -1.2,-0.7 -1,-0.4 -2.2,-0.6 -3.6,-0.6 -0.1,-0.1 -0.2,-0.1 -0.2,-0.1 z m -262,-7 c 0.1,0.2 0.1,0.3 0.3,0.4 0.4,0.2 1.2,0.7 2.9,1 1.7,0.3 3.8,0.5 6.2,0.7 2.6,0.1 5.7,0.2 9,0.2 1.8,0 3.9,0.1 6.1,0.2 2.4,0.1 4.8,0.4 7.3,0.8 l 0.3,-3.2 c -0.7,-0.2 -1.5,-0.5 -2.2,-0.7 -3.1,-0.9 -5.8,-1.5 -8.1,-1.9 -2.6,-0.4 -5.1,-0.6 -7.3,-0.7 -3.4,0.1 -6.3,0.3 -8.5,0.8 -2.6,0.5 -4,1.1 -4.8,1.5 -0.7,0.4 -1,0.7 -1.2,0.9 z"
       class="st1" /><path
       inkscape:connector-curvature="0"
       style="fill:#ffffff;fill-opacity:1"
       d="m 329.4772,718.98707 -2.1,9.3 c -1.1,-0.7 -2.3,-1.3 -3.6,-1.9 -1.3,-0.6 -2.7,-1.1 -4.1,-1.5 -1.4,-0.4 -2.8,-0.8 -4.3,-1.1 -1.4,-0.3 -2.8,-0.6 -4.1,-0.8 -3.1,-0.5 -6.3,-0.8 -9.5,-1 -3.1,-0.1 -6.2,0.1 -9.1,0.4 -2.9,0.3 -5.7,0.9 -8.4,1.6 -2.6,0.7 -5,1.7 -7.2,2.9 -2.2,1.2 -4.1,2.6 -5.6,4.3 -1.6,1.7 -2.8,3.6 -3.7,5.8 -0.9,2.2 -1.3,4.6 -1.3,7.3 0,3 0.5,5.6 1.6,7.7 1.1,2.1 2.5,3.9 4.4,5.3 1.8,1.4 4,2.5 6.4,3.3 2.4,0.8 5,1.4 7.7,1.8 2.7,0.4 5.4,0.7 8.2,0.8 2.8,0.1 5.4,0.2 7.9,0.3 3.6,0.1 6.7,0.2 9.4,0.4 2.7,0.2 5,0.6 6.7,1.1 1.8,0.5 3.2,1.3 4.1,2.3 0.9,1 1.3,2.4 1.3,4.2 0,1.4 -0.3,2.6 -0.9,3.7 -0.6,1.1 -1.6,1.9 -2.9,2.6 -1.3,0.7 -3,1.2 -5.1,1.6 -2.1,0.4 -4.6,0.5 -7.6,0.5 -3,0 -6,-0.2 -8.9,-0.5 -2.9,-0.4 -5.8,-0.9 -8.7,-1.5 -2.8,-0.7 -5.7,-1.5 -8.5,-2.5 -2.8,-1 -5.6,-2.1 -8.5,-3.3 l -2.4,9.3 -13.7,0.9 4.7,-59.6 -30.1,1 0,8.7 13.8,0.5 0.1,50.3 -9.6,0.6 0.3,-2.5 -14.2,1 4.7,-59.6 -30.1,1 0,8.7 13.8,0.5 0.1,50.3 -12.1,0.8 0,0.6 -5.2,-0.4 -0.6,-31.2 11.1,-0.6 0,-7.7 -32.7,-1.2 -1,10.3 10.8,-0.4 -1.5,20.2 c -1.5,2.8 -3.1,5 -4.8,6.5 -1.7,1.5 -3.2,2.6 -4.7,3.3 -1.7,0.8 -3.4,1.3 -5.1,1.4 -1.3,0 -2.5,-0.3 -3.4,-0.8 -0.9,-0.5 -1.6,-1.3 -2.2,-2.3 -0.5,-1 -0.9,-2.1 -1.1,-3.3 -0.2,-1.3 -0.3,-2.6 -0.3,-4.1 0,-0.9 0,-1.7 0,-2.5 0,-0.8 0.1,-1.8 0.2,-2.8 0.1,-1.1 0.2,-2.2 0.3,-3.6 0.2,-1.3 0.3,-3 0.5,-4.9 0.2,-1.9 0.5,-4.2 0.8,-6.7 0.3,-2.6 0.6,-5.7 1,-9.2 l -15.6,-0.7 0,-17.8 -71.100002,-1.5 0,18 12.2,-0.8 2.3,37.8 -14.7,0.6 0.3,12.2 41.100002,1.3 0,-15.1 -17.600002,0.8 1.1,-13.9 22.300002,1.8 0,-10.7 -21.800002,1.4 1.300002,-16.9 35.6,-2.3 -0.5,15.6 0,0 -0.1,0.8 10.2,-0.6 c -0.3,2.3 -0.5,4.3 -0.8,5.9 -0.2,1.6 -0.4,3.1 -0.6,4.3 -0.2,1.2 -0.3,2.3 -0.4,3.3 -0.1,1 -0.2,1.9 -0.3,2.8 -0.1,0.9 -0.1,1.8 -0.1,2.8 0,1 0,2.1 0,3.4 0,2.5 0.3,4.7 0.8,6.7 0.5,2 1.4,3.7 2.5,5.1 1.2,1.4 2.8,2.5 4.8,3.3 2,0.8 4.5,1.1 7.6,1.1 1.9,-0.1 4,-0.4 6.1,-1 1.8,-0.5 3.9,-1.2 6.2,-2.2 2.3,-1 4.7,-2.5 7.1,-4.4 l -0.6,7.8 25.9,0 0,-0.8 31.1,1 0.1,-1.1 32.6,1 -0.6,2.2 6.7,2 2.8,-8.4 c 2.4,0.8 4.8,1.5 7.1,2.1 2.4,0.6 4.7,1.1 7.1,1.6 2.4,0.4 4.8,0.8 7.2,1 2.5,0.3 5.1,0.4 7.8,0.4 2.1,0 4.3,-0.1 6.6,-0.3 2.3,-0.2 4.5,-0.6 6.6,-1.1 2.1,-0.5 4.1,-1.3 6,-2.2 1.9,-1 3.6,-2.2 5,-3.6 1.4,-1.5 2.5,-3.3 3.3,-5.4 0.7,-1.9 1.1,-4.1 1.2,-6.6 0,0.3 0.1,0.6 0.1,0.8 0.4,2.6 1.1,4.9 2,7.2 0.9,2.2 2.2,4.1 3.8,5.8 1.7,1.6 3.7,2.9 6.2,3.8 2.5,1 5.5,1.4 9.1,1.4 1.4,0 2.9,-0.1 4.4,-0.3 1.6,-0.2 3.3,-0.6 5,-1.1 1.8,-0.5 3.6,-1.3 5.4,-2.2 0.9,-0.5 1.9,-1 2.8,-1.6 0.8,0.7 1.8,1.4 2.8,1.9 1.8,0.9 3.7,1.5 5.9,1.8 2.1,0.4 4.2,0.5 6.2,0.5 2.7,0 5.5,-0.3 8.3,-1 2.8,-0.6 5.6,-1.7 8.4,-3.3 -0.1,0.6 -0.2,1.1 -0.3,1.7 -0.1,0.5 -0.2,1.1 -0.3,1.6 -0.1,0.6 -0.2,1.1 -0.2,1.6 l 23.8,1.8 1.9,-6.9 c 1.3,1 2.7,1.9 4.1,2.6 2.1,1.1 4.4,1.9 6.8,2.4 2.4,0.6 4.8,0.9 7.4,0.9 0.7,0 1.6,0 2.7,0 1.1,0 2.4,-0.2 3.9,-0.4 1.4,-0.2 3,-0.5 4.6,-1 1.7,-0.4 3.3,-1.1 5,-1.9 0.4,-0.2 0.9,-0.5 1.3,-0.7 l 0,2.4 32.3,0 0,-9.3 -8.4,0.3 0.7,-12 2.2,-1.4 19.1,22.3 21.3,0 0,-3.1 c 1.5,1 3.1,1.9 4.9,2.6 3.2,1.3 6.8,1.9 10.9,1.9 2.9,0 5.9,-0.4 8.9,-1.1 3,-0.7 5.9,-1.9 8.6,-3.3 2.7,-1.5 5.1,-3.4 7.3,-5.7 0.2,-0.2 0.3,-0.4 0.5,-0.6 l 1.2,10.5 36.8,-4.7 0,-8 -14.7,0.2 3.3,-19 c 1.8,-1.4 3.9,-2.7 6.5,-3.8 2.2,-1 4.9,-1.8 8.2,-2.6 1.8,-0.4 3.9,-0.8 6.1,-0.9 -0.2,0.8 -0.3,1.6 -0.3,2.4 0,1.9 0.4,3.6 1.2,5.2 0.9,1.5 2,2.9 3.4,4.2 1.4,1.3 3,2.3 4.8,3.3 1.8,1 3.6,1.8 5.6,2.6 1.9,0.7 3.8,1.4 5.6,2 1.9,0.5 3.5,1 5.1,1.4 1,0.3 2,0.6 3.2,1 1.2,0.4 2.3,0.8 3.4,1.3 1.1,0.5 1.9,1.2 2.7,2 0.7,0.7 1.1,1.6 1.1,2.6 0,0.8 -0.2,1.5 -0.6,2 -0.4,0.5 -0.9,0.9 -1.6,1.1 -0.6,0.3 -1.3,0.4 -2,0.5 -0.7,0.1 -1.3,0.1 -1.9,0.1 -1.2,0 -2.6,-0.1 -4.1,-0.4 -1.5,-0.3 -3.1,-0.7 -4.8,-1.1 -1.7,-0.5 -3.4,-1.1 -5.2,-1.7 -1.7,-0.7 -3.4,-1.4 -5,-2.1 -1.6,-0.7 -3.1,-1.4 -4.5,-2.1 -1.4,-0.7 -2.6,-1.4 -3.6,-2 l -5.5,15.5 10.1,3.4 1,-7.8 c 0.2,0 0.8,0.3 1.7,0.9 0.9,0.6 2.3,1.2 4,1.9 1.8,0.7 4,1.3 6.6,1.9 2.7,0.6 5.9,0.9 9.6,0.9 3.1,0 5.9,-0.2 8.5,-0.7 2.6,-0.5 4.9,-1.3 6.8,-2.3 0.9,-0.5 1.6,-1.1 2.3,-1.7 0.1,0.5 0.3,0.9 0.5,1.3 0.4,0.9 1.1,1.6 1.8,2.3 0.8,0.6 1.7,1.1 2.7,1.5 1.1,0.4 2.2,0.6 3.4,0.6 1.2,0 2.3,-0.2 3.3,-0.6 1.1,-0.4 2,-0.9 2.7,-1.5 0.5,-0.5 1,-1 1.4,-1.6 l 0.1,0.5 35.7,1 0.6,-4.7 c 1.9,1.7 4.1,3.2 6.7,4.3 3.2,1.3 7,2 11.5,2 4.4,0 8.3,-0.7 11.9,-2.1 3.6,-1.3 6.7,-3.3 9.2,-5.7 2.6,-2.5 4.5,-5.6 5.9,-9.1 1.4,-3.5 2.1,-7.5 2.1,-11.8 0,-3.2 -0.4,-6.2 -1.3,-9.1 -0.8,-2.9 -2.2,-5.5 -4.1,-7.8 -1.9,-2.3 -4.4,-4.1 -7.6,-5.4 -3.1,-1.3 -6.9,-2 -11.4,-2 -4.1,0 -7.9,0.6 -11.5,1.7 -3.6,1.1 -6.8,2.9 -9.6,5.2 -2.7,2.3 -4.9,5.2 -6.6,8.7 -1.6,3.5 -2.4,7.5 -2.4,12.2 0,3.4 0.5,6.7 1.5,9.8 0.2,0.7 0.5,1.4 0.8,2.1 l -7,0.5 3.6,-36.6 -30.1,2 0,7.7 14.9,0.5 0.3,26.8 -14.1,0.9 c -0.1,-0.1 -0.2,-0.2 -0.3,-0.3 -0.8,-0.6 -1.7,-1.1 -2.7,-1.5 -1,-0.4 -2.1,-0.6 -3.3,-0.6 -1.2,0 -2.3,0.2 -3.4,0.6 -0.5,0.2 -0.9,0.4 -1.3,0.6 0,-0.5 0.1,-1 0.1,-1.5 0,-2.4 -0.5,-4.4 -1.4,-6.1 -1,-1.7 -2.3,-3.1 -3.9,-4.2 -1.6,-1.1 -3.6,-2.1 -5.9,-2.8 -2.3,-0.8 -4.7,-1.4 -7.3,-2.1 -2.9,-0.7 -5.4,-1.3 -7.6,-1.9 -2.1,-0.5 -3.9,-1.1 -5.4,-1.7 -1.4,-0.6 -2.5,-1.2 -3.2,-1.8 -0.7,-0.7 -1.1,-1.5 -1.1,-2.4 0,-1.4 0.8,-2.5 2.3,-3.3 1.6,-0.8 3.6,-1.1 6.1,-1.1 1.8,0 3.7,0.2 5.7,0.6 2,0.4 4.1,0.8 6.1,1.4 2,0.6 4,1.3 5.9,2.1 1.9,0.8 3.7,1.6 5.2,2.4 l 4.7,-16.3 -10,-2 0.2,7.6 c -1.8,-1.1 -3.8,-2 -6,-2.9 -1.9,-0.7 -4.2,-1.4 -6.8,-2 -2.6,-0.6 -5.4,-0.9 -8.6,-0.9 -3.3,0 -6.3,0.4 -8.9,1.2 -2.6,0.8 -4.8,1.8 -6.6,3.1 0,0 0,0 0,0 l -0.7,-8.4 c -1.3,0.3 -2.7,0.7 -4.3,1.3 -1.5,0.6 -3.1,1.3 -4.7,2.2 -1.6,0.8 -3.2,1.8 -4.8,2.8 -1.6,1 -3,2 -4.5,3.1 -1.4,1 -2.6,2 -3.8,3 -1.1,1 -2.1,1.8 -2.8,2.5 l 1.6,-10.7 -31,2.7 0,3.2 c -1,-1.1 -2,-2.1 -3.2,-2.9 -1.5,-1 -3,-1.8 -4.6,-2.4 -1.6,-0.6 -3.3,-1 -5,-1.2 -1.7,-0.2 -3.3,-0.3 -4.9,-0.3 -4.3,0 -8.4,0.5 -12.3,1.6 -3.9,1 -7.2,2.6 -10.1,4.9 -1.3,1 -2.4,2.1 -3.4,3.4 l 0.9,-7.4 -20.4,2.3 -17.8,14.9 2.3,-38.7 -27.8,0.8 0,8.3 10.3,0.5 -0.1,7.9 -10.7,-2.1 -1.7,8.1 c -1.8,-1.1 -3.5,-2 -5.2,-2.7 -1.7,-0.6 -3.3,-1.1 -4.6,-1.4 -1.6,-0.4 -3.2,-0.6 -4.6,-0.6 -3.3,0 -6.5,0.5 -9.7,1.5 -3.2,1 -6,2.5 -8.6,4.6 -2.6,2.1 -4.7,4.7 -6.4,8 -0.4,0.7 -0.7,1.5 -1.1,2.4 -0.1,-0.6 -0.2,-1.1 -0.4,-1.7 -0.5,-1.8 -1.2,-3.6 -2.3,-5.4 -1.1,-1.8 -2.5,-3.4 -4.4,-4.8 -1.9,-1.4 -4.3,-2.6 -7.2,-3.4 -2.9,-0.9 -6.4,-1.3 -10.5,-1.2 -4.6,0.3 -8.8,1.2 -12.6,2.5 -1.6,0.6 -3.2,1.4 -4.7,2.3 -1.6,0.9 -3,2 -4.3,3.3 -1.3,1.2 -2.4,2.7 -3.3,4.4 -0.9,1.7 -1.4,3.6 -1.7,5.8 l 15.5,-0.8 c 0.2,-1.1 0.5,-2.2 1,-3.1 0.4,-0.9 0.9,-1.7 1.4,-2.4 0.5,-0.7 1.1,-1.2 1.7,-1.7 0.6,-0.5 1.2,-0.9 1.8,-1.2 1.3,-0.7 2.8,-1.2 4.4,-1.3 2.4,-0.1 4.4,0.1 6,0.5 1.6,0.4 2.9,1 3.9,1.9 1,0.8 1.7,1.9 2.1,3.1 0.4,1.2 0.6,2.6 0.6,4.2 0,2.1 -0.2,4.3 -0.6,6.7 -1.1,-0.2 -2.3,-0.3 -3.7,-0.3 -1.4,-0.1 -2.9,-0.1 -4.6,-0.1 -1.6,0 -3.5,0.1 -5.6,0.2 -2.1,0.1 -4.3,0.4 -6.6,0.9 -2.2,0.4 -4.5,1 -6.7,1.7 -2.2,0.7 -4.1,1.7 -5.8,2.9 -1.2,0.8 -2.2,1.7 -3,2.8 0,0 0,-0.1 0,-0.1 -1.2,1.6 -2.5,3.1 -3.8,4.3 -1.4,1.2 -2.8,2.3 -4.2,3.1 -1.4,0.8 -2.9,1.5 -4.4,1.9 -1.5,0.4 -2.9,0.6 -4.2,0.6 -1.3,0 -2.6,-0.2 -3.8,-0.6 -1.1,-0.4 -2.2,-1 -3,-1.9 -0.9,-0.9 -1.5,-1.9 -2.1,-3.2 -0.5,-1.3 -0.7,-2.8 -0.7,-4.5 0,-3 0.1,-6.1 0.4,-9.5 0.3,-3.4 0.7,-6.9 1.1,-10.5 l 22.2,-0.7 0.3,-12.3 -20.8,1.7 c 0.4,-2.7 0.9,-5.3 1.3,-7.6 0.4,-2.4 0.8,-4.4 1.2,-6.2 0.4,-2 0.8,-3.9 1.1,-5.6 l -15.5,-1.1 c -0.3,2.2 -0.7,4.5 -1,6.9 -0.3,2.1 -0.6,4.4 -1,7 -0.4,2.6 -0.7,5.2 -1,7.9 l -6.7,0.5 9.1,-22.3 -7.9,-3.3 z m 374.4,8.9 c -1.2,0 -2.4,0.2 -3.5,0.5 -1.1,0.3 -2,0.7 -2.8,1.2 -0.8,0.5 -1.4,1.1 -1.9,1.9 -0.4,0.7 -0.7,1.4 -0.7,2.2 0,0.8 0.2,1.5 0.7,2.2 0.5,0.7 1.1,1.3 1.9,1.8 0.8,0.5 1.7,0.9 2.8,1.2 1.1,0.3 2.2,0.4 3.5,0.4 1.2,0 2.3,-0.1 3.4,-0.4 1.1,-0.3 2,-0.7 2.8,-1.2 0.8,-0.5 1.4,-1.1 1.9,-1.8 0.5,-0.7 0.7,-1.4 0.7,-2.2 0,-0.8 -0.2,-1.5 -0.7,-2.2 -0.4,-0.7 -1.1,-1.4 -1.9,-1.9 -0.8,-0.5 -1.7,-0.9 -2.8,-1.2 -1,-0.3 -2.1,-0.5 -3.4,-0.5 z m -403.5,11.6 c 2.5,0 5.2,0.2 8.2,0.7 2.5,0.4 5.4,1.1 8.6,2 2.3,0.6 4.7,1.5 7.2,2.5 l -1,0.1 -1,10 11.4,-0.3 c -0.1,1 -0.1,1.9 -0.1,2.8 0,0.9 0,1.7 0,2.4 0,2.7 0,5.5 0.1,8.3 0,0.2 0,0.5 0,0.7 -0.2,-0.8 -0.5,-1.6 -0.8,-2.3 -1,-2.2 -2.3,-4 -4,-5.4 -1.6,-1.4 -3.5,-2.6 -5.6,-3.3 -2.1,-0.8 -4.3,-1.4 -6.6,-1.8 -2.2,-0.4 -4.5,-0.7 -6.7,-0.8 -2.2,-0.1 -4.1,-0.2 -5.9,-0.2 -3.4,0 -6.5,-0.1 -9.2,-0.2 -2.7,-0.1 -5.1,-0.4 -7,-0.8 -2,-0.4 -3.6,-1 -4.7,-1.8 -1.2,-0.8 -1.9,-1.9 -2.3,-3.3 -0.3,-1.2 -0.1,-2.4 0.4,-3.5 0.6,-1.1 1.7,-2 3.2,-2.9 1.6,-0.9 3.6,-1.5 6.2,-2 2.7,-0.6 5.9,-0.8 9.6,-0.9 z m 174.8,4.2 -0.7,40.8 -1.4,0 c 0.3,-0.4 0.6,-0.7 1,-1.1 l -8,-8.8 c -0.5,1.5 -1.1,2.8 -1.8,4 -0.7,1.1 -1.4,2.1 -2.1,3 -0.7,0.8 -1.5,1.5 -2.3,2.2 -0.8,0.6 -1.5,1.1 -2.2,1.4 -1.7,0.9 -3.4,1.4 -5.3,1.5 -2.9,0 -5.3,-0.5 -7.4,-1.4 -2,-1 -3.7,-2.3 -5.1,-3.9 -1.3,-1.7 -2.3,-3.7 -3,-6 -0.6,-2.3 -0.9,-4.8 -0.9,-7.5 0,-2.5 0.4,-4.8 1.1,-6.8 0.7,-2.1 1.7,-3.9 3.1,-5.4 1.4,-1.5 3.1,-2.7 5.1,-3.6 2,-0.9 4.4,-1.3 7.1,-1.3 0.8,0.1 1.7,0.2 2.7,0.5 0.8,0.3 1.8,0.6 2.8,1.1 1.1,0.5 2.2,1.2 3.4,2.1 l -1.4,7 8.1,1 7.2,-18.8 z m 266,4.3 c 1.6,0 3,0.3 4.2,1 1.2,0.7 2.3,1.6 3.2,2.7 0.9,1.1 1.6,2.4 2.2,3.8 0.6,1.4 1.1,3 1.4,4.5 0.4,1.6 0.6,3.1 0.7,4.7 0.2,1.6 0.2,3.1 0.2,4.5 0,1 0,2.2 -0.1,3.5 -0.1,1.3 -0.3,2.7 -0.6,4.1 -0.3,1.4 -0.6,2.7 -1.1,4.1 -0.5,1.3 -1.2,2.5 -2.1,3.6 -0.8,1.1 -1.9,1.9 -3.1,2.5 -1.2,0.6 -2.7,1 -4.4,1 -1.7,0 -3.2,-0.3 -4.5,-1 -1.3,-0.6 -2.4,-1.5 -3.3,-2.5 -1,-1.1 -1.8,-2.3 -2.4,-3.6 -0.6,-1.4 -1.1,-2.8 -1.5,-4.2 -0.4,-1.4 -0.7,-2.9 -0.8,-4.3 -0.2,-1.4 -0.2,-2.7 -0.2,-3.9 0,-1.1 0.1,-2.3 0.2,-3.7 0.2,-1.4 0.4,-2.9 0.8,-4.4 0.4,-1.5 0.8,-3 1.4,-4.5 0.6,-1.5 1.4,-2.8 2.2,-3.9 0.9,-1.2 2,-2.1 3.3,-2.8 1.2,-0.8 2.7,-1.2 4.3,-1.2 z m -193.7,1.6 c 2.2,-0.1 4.2,0.3 6,1 0.8,0.3 1.5,0.8 2.2,1.3 0.8,0.5 1.5,1.2 2.1,2 0.6,0.8 1.2,1.8 1.6,2.9 0.4,1.1 0.7,2.4 0.8,3.9 l -22.7,4 c 0,-1.8 0.1,-3.5 0.4,-5.2 0.3,-1.7 0.7,-3.2 1.4,-4.6 0.7,-1.4 1.8,-2.6 3.1,-3.5 1.3,-0.9 3,-1.6 5.1,-1.8 z m 27.3,4.8 11.6,0.9 -0.6,26.6 -10.7,0.1 c 1.3,-1.8 2.3,-3.7 3.2,-5.9 l -14.4,-3.4 c 0.2,1.8 0.1,3.4 -0.1,4.8 -0.3,1.4 -0.7,2.6 -1.2,3.7 -0.5,1.1 -1.2,2 -1.9,2.7 -0.7,0.7 -1.5,1.4 -2.3,1.9 -1.9,1.2 -4.1,1.9 -6.5,2.2 -2.3,0.1 -4.2,-0.4 -5.9,-1.3 -1.6,-1 -3,-2.2 -4.1,-3.8 -1.1,-1.6 -2,-3.5 -2.7,-5.6 -0.6,-2.1 -1.1,-4.3 -1.3,-6.5 l 39.3,-7 c -0.3,-3 -0.9,-5.6 -1.7,-7.8 -0.3,-0.6 -0.5,-1.1 -0.7,-1.6 z m -60.3,1.7 10.7,0 c -0.3,0.5 -0.6,1 -0.8,1.5 -1.7,3.5 -2.5,7.8 -2.5,12.8 0.2,3.3 0.9,6.4 2.2,9.3 0.5,1.2 1.2,2.4 1.9,3.5 l -2.9,0.5 -19.1,-20.7 10.5,-6.9 z m -111.8,16.5 c 0.9,0 1.8,0 2.7,0 0.9,0 1.7,0.1 2.4,0.1 -0.2,1.3 -0.4,2.7 -0.6,4.1 -0.2,1.4 -0.5,2.7 -0.7,4.1 -1.5,0.6 -3.4,1.2 -5.5,1.9 -2.1,0.6 -4.4,1.2 -6.7,1.6 -1.2,0.2 -2.3,0.2 -3.4,0 -1.1,-0.2 -2,-0.6 -2.8,-1.1 -0.8,-0.5 -1.4,-1.1 -1.9,-1.7 -0.4,-0.7 -0.7,-1.4 -0.7,-2.2 0,-1 0.3,-1.9 1,-2.6 0.6,-0.7 1.4,-1.4 2.4,-1.9 1,-0.5 2.2,-0.9 3.4,-1.2 1.3,-0.3 2.6,-0.6 3.8,-0.7 1.3,-0.2 2.5,-0.3 3.6,-0.4 1.2,0 2.2,0 3,0 z m 18.5,3.5 c 0.6,2.2 1.4,4.3 2.5,6.1 0.9,1.5 2,2.9 3.3,4.2 l -8.2,-1 c 1,-3.4 1.7,-6.3 2.3,-8.8 0.1,-0.1 0.1,-0.3 0.1,-0.5 z"
       class="st2"
       id="path3519-3-5" /></g></svg>